<?xml version="1.0" encoding="UTF-8"?>
<svg version="1.1" xmlns="http://www.w3.org/2000/svg" width="151" height="98">
<path d="M0 0 C49.83 0 99.66 0 151 0 C151 32.34 151 64.68 151 98 C101.17 98 51.34 98 0 98 C0 65.66 0 33.32 0 0 Z " fill="#FDFDFD" transform="translate(0,0)"/>
<path d="M0 0 C3.86117639 2.26163982 7.33609392 4.98546894 10.30078125 8.34765625 C10.30078125 9.00765625 10.30078125 9.66765625 10.30078125 10.34765625 C10.78546875 9.90035156 11.27015625 9.45304687 11.76953125 8.9921875 C19.57192094 1.95503218 25.85081481 -2.76258177 36.61328125 -2.96484375 C38.55654297 -3.02091797 38.55654297 -3.02091797 40.5390625 -3.078125 C47.19281799 -2.32500003 51.53409543 1.92149695 55.6875 6.89453125 C61.80115098 16.19083347 62.66570178 27.67857041 60.7578125 38.3984375 C58.69267118 46.83014709 55.16067872 52.12816904 48.30078125 57.34765625 C44.08571565 59.45518905 38.87828103 58.86277131 34.30078125 58.34765625 C30.27035286 56.71863293 27.99008104 54.23707533 25.36328125 50.84765625 C23.35640655 44.2367749 22.98719789 37.17691272 25.92578125 30.84765625 C33.86588021 22.48965734 33.86588021 22.48965734 38.578125 22.21484375 C39.89490234 22.21871094 39.89490234 22.21871094 41.23828125 22.22265625 C42.11355469 22.22007813 42.98882812 22.2175 43.890625 22.21484375 C46.30078125 22.34765625 46.30078125 22.34765625 49.30078125 23.34765625 C47.11868683 15.18837329 47.11868683 15.18837329 41.30078125 9.34765625 C36.03504538 8.2491148 31.59456361 8.78483388 26.92578125 11.47265625 C22.5200288 14.67926237 19.78398 17.73908326 18.76171875 23.2578125 C18.46213243 25.34730013 18.20202232 27.44296273 17.98828125 29.54296875 C17.16068227 32.91919642 16.02826233 34.23867459 13.30078125 36.34765625 C9.9092383 36.1861542 8.71781368 35.76468868 6.30078125 33.34765625 C5.94210557 31.63113693 5.66068229 29.89794459 5.42578125 28.16015625 C4.03797609 19.99345664 0.95771714 15.26800017 -5.69921875 10.34765625 C-9.68542116 8.35455504 -14.37554054 8.6978549 -18.69921875 9.34765625 C-23.14742005 13.06962061 -24.49588622 16.87796293 -25.69921875 22.34765625 C-24.98636719 22.31285156 -24.27351563 22.27804688 -23.5390625 22.2421875 C-16.88772362 22.05419542 -11.3784566 21.93332353 -6.234375 26.70703125 C-1.43886773 32.10023943 -0.22549106 36.79965558 -0.3828125 43.84765625 C-1.0333629 48.98780755 -3.47211061 52.21033651 -7.26171875 55.72265625 C-12.35028182 59.11503163 -17.77655973 58.95858956 -23.69921875 58.34765625 C-30.61347841 54.95338333 -33.78451995 49.5518268 -36.96484375 42.82421875 C-37.69921875 40.34765625 -37.69921875 40.34765625 -37.69921875 33.34765625 C-47.59921875 33.34765625 -57.49921875 33.34765625 -67.69921875 33.34765625 C-67.69921875 29.71765625 -67.69921875 26.08765625 -67.69921875 22.34765625 C-64.72921875 21.68765625 -61.75921875 21.02765625 -58.69921875 20.34765625 C-58.69921875 19.68765625 -58.69921875 19.02765625 -58.69921875 18.34765625 C-63.15421875 17.35765625 -63.15421875 17.35765625 -67.69921875 16.34765625 C-67.69921875 12.38765625 -67.69921875 8.42765625 -67.69921875 4.34765625 C-59.87357225 4.83675916 -54.11546734 6.27303252 -48.19921875 11.59765625 C-46.11710898 15.41485749 -46.40709863 18.0388845 -46.69921875 22.34765625 C-43.72921875 22.34765625 -40.75921875 22.34765625 -37.69921875 22.34765625 C-37.63734375 21.39890625 -37.57546875 20.45015625 -37.51171875 19.47265625 C-36.26085526 11.12229725 -31.96325164 4.91422041 -25.56640625 -0.375 C-18.46669519 -5.23191531 -7.37723076 -3.36865365 0 0 Z " fill="#040404" transform="translate(79.69921875,17.65234375)"/>
<path d="M0 0 C10.01708612 -0.77718772 10.01708612 -0.77718772 13.6875 2.125 C15.19836633 5.43451672 15.54698477 7.40552862 15 11 C13.875 12.875 13.875 12.875 12 14 C9.0625 14.5 9.0625 14.5 6 14 C2.66134242 10.66134242 0.03890783 7.17883828 -0.046875 2.375 C-0.03140625 1.59125 -0.0159375 0.8075 0 0 Z " fill="#F8F8F8" transform="translate(53,51)"/>
<path d="M0 0 C3.0625 0.5 3.0625 0.5 5.5 2.125 C7.0625 4.5 7.0625 4.5 7 7.5 C5.4625 12.42 5.4625 12.42 3.0625 14.5 C-0.5 14.875 -0.5 14.875 -3.9375 14.5 C-5.9375 12.5 -5.9375 12.5 -6.25 8.625 C-6.1670898 5.94261115 -5.93191061 4.48757912 -4.8125 2 C-2.9375 0.5 -2.9375 0.5 0 0 Z " fill="#F7F7F7" transform="translate(120.9375,50.5)"/>
</svg>
